Coordinates
version=1
nRows=11
nColumns=40
inDegrees=yes

Units are S.I. units (second, meters, Newtons, ...)
Angles are in degrees.

endheader
time	pelvis_tilt	pelvis_list	pelvis_rotation	pelvis_tx	pelvis_ty	pelvis_tz	hip_flexion_r	hip_adduction_r	hip_rotation_r	knee_angle_r	knee_angle_r_beta	ankle_angle_r	subtalar_angle_r	mtp_angle_r	hip_flexion_l	hip_adduction_l	hip_rotation_l	knee_angle_l	knee_angle_l_beta	ankle_angle_l	subtalar_angle_l	mtp_angle_l	lumbar_extension	lumbar_bending	lumbar_rotation	arm_flex_r	arm_add_r	arm_rot_r	elbow_flex_r	pro_sup_r	wrist_flex_r	wrist_dev_r	arm_flex_l	arm_add_l	arm_rot_l	elbow_flex_l	pro_sup_l	wrist_flex_l	wrist_dev_l
      9.61342857	     -3.86774667	     -4.46572962	      8.60884295	      0.99040099	      0.92316063	      0.50673987	      0.79122921	      2.78390613	    -18.36269884	     11.89150211	     11.89150211	     16.24154344	     -0.01305808	     -4.83807951	     27.71790818	     -4.97851257	      0.72607331	     20.47722128	     20.47722128	      3.67148843	     -6.00773463	      1.77844816	     -9.09662998	      3.23294930	      2.84401080	     35.36875904	    -15.44931012	     -5.81730250	     90.67912000	     44.63271164	      0.00000000	      0.00000000	     -4.41899290	     -7.27535312	     -5.79677858	     26.16552941	     46.35611134	      0.00000000	      0.00000000
      9.62685714	     -3.83011241	     -4.48173554	      8.39304318	      0.99249142	      0.92239411	      0.50521081	      0.33407409	      2.71175908	    -18.13280899	     12.10095116	     12.10095116	     16.57508721	      0.04297186	     -4.89343215	     27.29445065	     -5.01646151	      0.51124665	     21.06995637	     21.06995637	      3.68304099	     -6.55971134	      1.65612201	     -8.98334723	      3.22849233	      2.80254245	     34.65627999	    -15.17627096	     -5.73689621	     90.24757621	     44.64231896	      0.00000000	      0.00000000	     -4.03714814	     -7.51255615	     -5.83526312	     26.32296199	     46.36899188	      0.00000000	      0.00000000
      9.64028571	     -3.66010762	     -4.41849983	      8.18650921	      0.99469498	      0.92192457	      0.50356593	     -0.19568806	      2.52561934	    -17.93129418	     12.50134750	     12.50134750	     16.84339958	      0.04828159	     -4.85045983	     26.91636935	     -4.95163983	      0.62796117	     22.00730406	     22.00730406	      3.86721780	     -7.36022538	      1.38120684	     -9.00600527	      3.01442598	      2.99113160	     33.62090150	    -14.80722867	     -5.67512122	     89.36993358	     44.66636419	      0.00000000	      0.00000000	     -3.62104205	     -7.76399358	     -5.89398337	     26.51981858	     46.38507569	      0.00000000	      0.00000000
      9.65371429	     -3.75848812	     -4.41248673	      7.95917823	      0.99641194	      0.92127685	      0.50158641	     -0.14598178	      2.23355858	    -17.76510880	     13.40561566	     13.40561566	     17.36396504	      0.01828030	     -4.26348533	     26.83187922	     -4.74041499	      1.28478298	     22.79324613	     22.79324613	      3.88004493	     -9.08260173	      1.17346636	     -8.66727405	      2.92364975	      3.27038358	     33.03407820	    -14.69925078	     -6.35850690	     86.73389230	     44.78097432	      0.00000000	      0.00000000	     -3.01807005	     -7.90629097	     -6.04387064	     26.84492431	     46.41372198	      0.00000000	      0.00000000
      9.66714286	     -3.61600157	     -4.34722529	      7.75623897	      0.99845046	      0.92141741	      0.49955218	     -0.63646116	      2.00600479	    -17.55666894	     13.76674926	     13.76674926	     17.45191324	      0.04176742	     -4.21500370	     26.34981011	     -4.64052735	      1.38477198	     23.32409890	     23.32409890	      4.31561650	     -9.55745130	      0.96809775	     -8.74289659	      2.83315864	      3.07874781	     31.96990052	    -14.23906590	     -6.18649480	     86.12976364	     44.79155105	      0.00000000	      0.00000000	     -2.49770760	     -8.12052608	     -6.07273144	     27.02879241	     46.42686027	      0.00000000	      0.00000000
      9.68057143	     -3.60678595	     -4.18761660	      7.52622869	      1.00011103	      0.92157899	      0.49717173	     -0.58367845	      1.45728250	    -17.51735483	     14.98720834	     14.98720834	     18.27919943	      0.30639341	     -2.50349603	     26.09738982	     -4.24035559	      2.03867569	     23.98132055	     23.98132055	      4.72496716	    -11.09204317	      1.60459712	     -8.55576659	      2.61330853	      2.67127195	     31.81660044	    -13.39049598	     -6.39894841	     81.98972851	     44.95816860	      0.00000000	      0.00000000	     -2.10798467	     -8.31603290	     -6.51914926	     27.18672868	     46.47885395	      0.00000000	      0.00000000
      9.69400000	     -3.52249597	     -4.11949530	      7.27123241	      1.00176000	      0.92199376	      0.49479322	     -0.65634404	      1.05075179	    -17.32292688	     15.98388886	     15.98388886	     18.33391431	      0.22260419	     -2.53315699	     25.73077445	     -4.06316356	      2.28343995	     24.50922042	     24.50922042	      5.27221102	    -11.80374213	      1.68346211	     -8.58774599	      2.54300392	      2.94648413	     30.59066578	    -13.51438095	     -6.26384276	     80.50436526	     45.00203508	      0.00000000	      0.00000000	     -1.30536445	     -8.43426947	     -6.62244201	     27.61619793	     46.50265011	      0.00000000	      0.00000000
      9.70742857	     -3.32690768	     -4.14934406	      7.06945317	      1.00349090	      0.92284919	      0.49233644	     -0.95253200	      0.80101854	    -17.15486543	     16.73204256	     16.73204256	     18.18193517	      0.21091151	     -2.59916234	     25.19286977	     -4.01468947	      2.45293053	     24.88537922	     24.88537922	      5.81302959	    -12.22672143	      1.59914865	     -8.76284128	      2.63377801	      2.84440202	     29.19745134	    -13.17513248	     -6.03672580	     79.57427706	     45.01997449	      0.00000000	      0.00000000	     -0.62689064	     -8.59076629	     -6.64328766	     27.89979177	     46.51591623	      0.00000000	      0.00000000
      9.72085714	     -3.44315554	     -3.96286793	      6.67820252	      1.00471349	      0.92332281	      0.48970995	     -0.36962881	      0.02839634	    -16.94579025	     18.54002318	     18.54002318	     18.19438868	      0.12349850	     -3.03360895	     24.88883837	     -3.65779803	      2.62389445	     25.13948735	     25.13948735	      6.33025173	    -13.10955591	      2.14078407	     -8.62472425	      2.43212018	      3.42893228	     28.11220854	    -13.69236917	     -6.02064367	     76.62743607	     45.11608984	      0.00000000	      0.00000000	      0.39742235	     -8.62821294	     -6.65505353	     28.41696591	     46.52703513	      0.00000000	      0.00000000
      9.73428571	     -3.45131732	     -3.89111366	      6.31367019	      1.00605284	      0.92410115	      0.48713142	      0.06862554	     -0.59343060	    -16.79380387	     20.23774690	     20.23774690	     17.98004637	      0.14562842	     -3.58927111	     24.40900115	     -3.46807106	      2.68291056	     25.26108311	     25.26108311	      6.90956774	    -13.66179140	      2.72249978	     -8.53639861	      2.34915778	      3.57635700	     27.16218981	    -13.68544567	     -5.79099010	     73.71793023	     45.20377642	      0.00000000	      0.00000000	      1.22977384	     -8.71645987	     -6.60317207	     28.83585454	     46.52359332	      0.00000000	      0.00000000
      9.74771429	     -3.28387700	     -3.87407652	      5.98322624	      1.00741928	      0.92513635	      0.48449654	      0.34240894	     -1.13253895	    -16.57871167	     21.93451181	     21.93451181	     17.67133536	      0.06362112	     -4.13143392	     23.73934078	     -3.39107485	      2.58504001	     25.36696091	     25.36696091	      7.45075940	    -13.93152490	      2.90348904	     -8.70646724	      2.39305985	      3.61769340	     25.92770238	    -13.57371480	     -5.49307503	     71.68440730	     45.25702305	      0.00000000	      0.00000000	      2.04367760	     -8.81425316	     -6.56385294	     29.31372259	     46.52589780	      0.00000000	      0.00000000
